<svg xmlns="http://www.w3.org/2000/svg" viewBox="0 0 1200 900" width="1200" height="900" role="img">
<rect width="1200" height="900" fill="#EDEDEA"/>

  <rect x="110" y="120" width="500" height="470" rx="18" fill="#FFFFFF" stroke="#D8D8D2" stroke-width="2"/>
  <text x="360" y="430" font-family="Georgia,serif" font-size="300" fill="#111314" text-anchor="middle">Aa</text>
  <rect x="150" y="520" width="200" height="14" rx="6" fill="#E3E3DE"/> <rect x="150" y="546" width="300" height="14" rx="6" fill="#E3E3DE"/>
  <rect x="650" y="120" width="440" height="220" rx="18" fill="#FFFFFF" stroke="#D8D8D2" stroke-width="2"/>
  <circle cx="726" cy="230" r="46" fill="#111314"/>
  <circle cx="838" cy="230" r="46" fill="#0E4F47"/>
  <circle cx="950" cy="230" r="46" fill="#C8894B"/>
  <circle cx="1046" cy="230" r="30" fill="#E3E3DE"/>
  <rect x="650" y="370" width="440" height="220" rx="18" fill="#FFFFFF" stroke="#D8D8D2" stroke-width="2"/>
  <rect x="700" y="430" width="100" height="100" rx="50" fill="none" stroke="#111314" stroke-width="10"/>
  <rect x="840" y="430" width="100" height="100" rx="14" fill="none" stroke="#111314" stroke-width="10"/>
  <path d="M990 530l50-100 50 100z" fill="none" stroke="#111314" stroke-width="10" stroke-linejoin="round"/>
  <rect x="110" y="630" width="980" height="150" rx="18" fill="#FFFFFF" stroke="#D8D8D2" stroke-width="2"/>
  <rect x="150" y="676" width="300" height="22" rx="6" fill="#111314"/> <rect x="150" y="714" width="500" height="14" rx="6" fill="#E3E3DE"/> <rect x="700" y="676" width="350" height="14" rx="6" fill="#E3E3DE"/> <rect x="700" y="704" width="280" height="14" rx="6" fill="#E3E3DE"/>

</svg>